<?xml version="1.0" standalone="no"?>
<!DOCTYPE svg PUBLIC "-//W3C//DTD SVG 20010904//EN"
 "http://www.w3.org/TR/2001/REC-SVG-20010904/DTD/svg10.dtd">
<svg version="1.0" xmlns="http://www.w3.org/2000/svg"
 width="300.000000pt" height="300.000000pt" viewBox="0 0 300.000000 300.000000"
 preserveAspectRatio="xMidYMid meet">

<rect x="0" y="0" width="300" height="300" rx="64" fill="#ffffff"/>
<g transform="translate(0.000000,300.000000) scale(0.100000,-0.100000)"
fill="#000000" stroke="none">
<path d="M1365 2994 c-354 -36 -676 -187 -924 -434 -209 -209 -347 -465 -413
-767 -30 -142 -30 -445 1 -586 133 -615 591 -1064 1206 -1184 111 -21 435 -22
530 -1 l60 13 3 488 2 487 -204 0 c-234 0 -288 11 -392 78 -172 112 -259 325
-213 522 49 215 256 379 478 380 112 0 213 -35 305 -104 25 -20 48 -36 51 -36
9 0 5 1099 -4 1104 -42 26 -362 53 -486 40z"/>
<path d="M1993 1893 c3 -1098 2 -1058 52 -1208 67 -199 217 -394 396 -516 131
-89 309 -151 474 -164 l86 -7 -4 848 c-4 815 -5 853 -25 945 -111 513 -455
923 -930 1108 l-53 21 4 -1027z"/>
<path d="M1313 1702 c-9 -5 -9 -19 -2 -51 14 -61 33 -94 81 -141 23 -22 37
-40 31 -40 -34 0 -102 -103 -116 -177 -8 -38 10 -55 30 -28 12 17 13 17 13 2
0 -32 28 -17 38 21 l11 37 -2 -35 c-2 -26 2 -36 16 -38 14 -3 17 4 18 45 0 26
4 57 9 68 6 13 7 -5 3 -47 -5 -64 -5 -68 15 -68 18 0 21 7 25 58 l3 57 2 -57
c2 -44 6 -58 17 -58 23 0 23 445 0 454 -12 4 -15 -6 -17 -52 l-2 -57 -3 53
c-4 45 -7 52 -25 52 -19 0 -20 -4 -15 -62 4 -41 3 -56 -3 -43 -5 11 -9 39 -9
63 -1 30 -5 42 -16 42 -10 0 -15 -11 -16 -32 l-1 -33 -11 40 c-11 35 -14 37
-27 23 -12 -13 -16 -13 -25 -2 -5 8 -15 10 -22 6z m61 -118 c3 -8 2 -12 -4 -9
-6 3 -10 10 -10 16 0 14 7 11 14 -7z m60 -41 c9 -18 14 -33 12 -33 -6 0 -36
55 -36 66 0 11 5 3 24 -33z m61 -120 c-12 -48 -14 -50 -8 -13 8 58 8 86 0 135
-5 32 -4 29 8 -12 13 -45 13 -58 0 -110z m-27 107 c11 -32 10 -33 -3 -16 -8
11 -15 29 -15 40 0 25 4 19 18 -24z m-18 -35 c21 13 30 -33 15 -72 -9 -23 -14
-28 -11 -13 2 14 7 33 11 43 4 10 3 17 -2 15 -10 -3 -83 77 -83 90 0 4 14 -10
31 -31 17 -20 35 -35 39 -32z m-20 -39 c0 -2 -8 -10 -17 -17 -16 -13 -17 -12
-4 4 13 16 21 21 21 13z m8 -31 c-6 -14 -13 -23 -15 -21 -5 5 15 46 22 46 3 0
-1 -11 -7 -25z m-65 -50 c-3 -9 -8 -14 -10 -11 -3 3 -2 9 2 15 9 16 15 13 8
-4z m-16 -47 c-3 -8 -6 -5 -6 6 -1 11 2 17 5 13 3 -3 4 -12 1 -19z"/>
<path d="M1542 1702 c-9 -3 -12 -62 -12 -227 l0 -223 66 0 66 0 -5 39 c-3 22
-1 37 4 33 5 -3 9 -21 9 -40 0 -24 5 -34 15 -34 8 0 15 9 15 20 0 11 5 20 10
20 6 0 10 -9 10 -20 0 -11 7 -20 15 -20 39 0 -3 125 -62 187 l-42 43 43 44
c46 46 85 138 73 171 -11 27 -25 8 -37 -49 -6 -29 -17 -62 -25 -72 -13 -16
-13 -13 0 18 20 51 20 119 0 112 -8 -4 -15 -19 -15 -34 0 -16 -4 -31 -9 -35
-6 -3 -7 9 -4 30 5 34 5 35 -28 36 -19 0 -43 2 -54 3 -12 1 -26 1 -33 -2z m74
-84 c-3 -29 -9 -64 -12 -78 l-6 -25 22 25 c15 18 19 20 11 5 -5 -11 -17 -29
-25 -40 -15 -19 -16 -19 -9 -1 5 15 3 17 -7 11 -10 -6 -11 -4 -5 11 5 10 13
47 19 82 12 75 21 82 12 10z m-36 -15 c0 -19 -3 -24 -10 -17 -6 6 -8 18 -4 27
9 24 14 21 14 -10z m-14 -79 c-4 -14 -9 -24 -12 -21 -3 2 -2 17 2 31 3 15 9
25 11 22 3 -3 2 -17 -1 -32z m104 22 c0 -2 -8 -10 -17 -17 -16 -13 -17 -12 -4
4 13 16 21 21 21 13z m-105 -107 c10 -46 -1 -46 -13 1 -5 22 -6 38 -2 35 5 -3
11 -19 15 -36z m56 15 c2 2 5 -7 6 -21 1 -27 -3 -23 -29 22 -10 17 -9 18 4 8
8 -7 17 -11 19 -9z m-21 -39 c0 -5 -5 -3 -10 5 -5 8 -10 20 -10 25 0 6 5 3 10
-5 5 -8 10 -19 10 -25z m90 -39 c0 -11 0 -11 -29 34 l-23 35 26 -30 c14 -16
26 -34 26 -39z m-71 -55 c1 -48 -5 -36 -13 24 -4 34 -3 43 3 30 5 -11 10 -35
10 -54z m-39 32 c-1 -24 -2 -26 -11 -10 -5 9 -7 22 -4 27 10 17 15 11 15 -17z
m124 -9 c3 -8 2 -12 -4 -9 -6 3 -10 10 -10 16 0 14 7 11 14 -7z"/>
</g>
</svg>
