<svg xmlns="http://www.w3.org/2000/svg" xmlns:xlink="http://www.w3.org/1999/xlink" xmlns:svg="http://www.w3.org/2000/svg" version="1.1" width="233px" height="49.75px" preserveAspectRatio="none" viewBox="221 162.5 233 49.75"><defs><clipPath id="clippath0" transform="matrix(0.23999999 0 0 -0.23999999 0 383.03998)"><path d="M 0 0 L 2812.5 0 L 2812.5 1562.5 L 0 1562.5 Z" fill="none" clip-rule="evenodd"></path></clipPath><clipPath id="clippath1" transform="matrix(0.23999999 0 0 -0.23999999 0 383.03998)"><path d="M 0 0 L 2812.5 0 L 2812.5 1562.5 L 0 1562.5 Z" fill="none" clip-rule="evenodd"></path></clipPath><clipPath id="clippath2" transform="matrix(0.23999999 0 0 -0.23999999 0 383.03998)"><path d="M 0 0 L 2812.5 0 L 2812.5 1562.5 L 0 1562.5 Z" fill="none" clip-rule="nonzero"></path></clipPath><clipPath id="clippath3" transform="matrix(0.23999999 0 0 -0.23999999 0 383.03998)" clip-path="url(#clippath2)"><path d="M 0 0 L 2812.5 0 L 2812.5 1562.5 L 0 1562.5 Z" fill="none" clip-rule="nonzero"></path></clipPath><clipPath id="clippath4" transform="matrix(0.23999999 0 0 -0.23999999 0 383.03998)" clip-path="url(#clippath3)"><path d="M 1061.87415 741.93951 L 1147.596074 741.93951 L 1147.596074 868.354366 L 1061.87415 868.354366 Z" fill="none" clip-rule="nonzero"></path></clipPath><clipPath id="clippath5" transform="matrix(0.23999999 0 0 -0.23999999 0 383.03998)" clip-path="url(#clippath4)"><path d="M 1103.75012 742.27301 C 1128.62 742.29517 1147.28296 762.19244 1147.2627 784.41656 C 1147.25 798.75519 1141.22681 814.61145 1125.39685 824.28955 C 1107.85425 835.01453 1092.75977 844.06366 1084.74915 850.52051 C 1073.03406 859.9624 1070.11621 867.06506 1069.68445 868.26996 C 1069.66565 868.32141 1069.60181 868.31354 1069.59387 868.25873 C 1069.15125 865.45386 1063.99133 832.48151 1062.81946 811.62488 C 1061.99976 797.05157 1060.19409 779.08771 1065.7467 766.49023 C 1070.97827 754.61707 1085.70068 742.25763 1103.75012 742.27301 Z" fill="none" clip-rule="nonzero"></path></clipPath><clipPath id="clippath6" transform="matrix(0.23999999 0 0 -0.23999999 0 383.03998)"><path d="M 0 0 L 2812.5 0 L 2812.5 1562.5 L 0 1562.5 Z" fill="none" clip-rule="nonzero"></path></clipPath><clipPath id="clippath7" transform="matrix(0.23999999 0 0 -0.23999999 0 383.03998)" clip-path="url(#clippath6)"><path d="M 0 0 L 2812.5 0 L 2812.5 1562.5 L 0 1562.5 Z" fill="none" clip-rule="nonzero"></path></clipPath><clipPath id="clippath8" transform="matrix(0.23999999 0 0 -0.23999999 0 383.03998)" clip-path="url(#clippath7)"><path d="M 937.55511 694.42401 L 1055.571284 694.42401 L 1055.571284 868.26367 L 937.55511 868.26367 Z" fill="none" clip-rule="nonzero"></path></clipPath><clipPath id="clippath9" transform="matrix(0.23999999 0 0 -0.23999999 0 383.03998)" clip-path="url(#clippath8)"><path d="M 997.57318 694.42407 C 963.2702 694.45526 937.52716 721.8996 937.5553 752.55487 C 937.5741 772.33344 945.8808 794.20209 967.7168 807.5528 C 991.91345 822.34668 1012.73291 834.82831 1023.78076 843.73242 C 1039.94128 856.75623 1043.96729 866.55493 1044.56128 868.21533 C 1044.58643 868.28699 1044.67529 868.27612 1044.68652 868.20105 C 1045.29785 864.3316 1052.41467 818.85095 1054.03149 790.08386 C 1055.16174 769.98181 1057.65112 745.20355 1049.99438 727.82843 C 1042.77588 711.45062 1022.47046 694.40198 997.57318 694.42407 Z" fill="none" clip-rule="nonzero"></path></clipPath><clipPath id="clippath10" transform="matrix(0.23999999 0 0 -0.23999999 0 383.03998)"><path d="M 0 0 L 2812.5 0 L 2812.5 1562.5 L 0 1562.5 Z" fill="none" clip-rule="nonzero"></path></clipPath><clipPath id="clippath11" transform="matrix(0.23999999 0 0 -0.23999999 0 383.03998)" clip-path="url(#clippath10)"><path d="M 0 0 L 2812.5 0 L 2812.5 1562.5 L 0 1562.5 Z" fill="none" clip-rule="nonzero"></path></clipPath><clipPath id="clippath12" transform="matrix(0.23999999 0 0 -0.23999999 0 383.03998)" clip-path="url(#clippath11)"><path d="M 1232.26392 745.38074 L 1277.989018 745.38074 L 1277.989018 845.015078 L 1232.26392 845.015078 Z" fill="none" clip-rule="nonzero"></path></clipPath><clipPath id="clippath13" transform="matrix(0.23999999 0 0 -0.23999999 0 383.03998)" clip-path="url(#clippath12)"><path d="M 1277.81104 782.05286 L 1262.67761 782.05286 L 1262.67761 823.44586 C 1262.67761 825.91742 1263.34485 827.64807 1264.68262 828.63971 C 1266.01709 829.62793 1268.26758 830.12152 1271.43311 830.12152 L 1277.81104 830.12152 L 1277.81104 844.36487 C 1273.75427 844.76111 1270.49341 844.95844 1268.0188 844.95844 C 1259.71277 844.95844 1253.65442 843.39844 1249.8468 840.28485 C 1246.03784 837.16974 1244.13306 832.19836 1244.13306 825.37384 L 1244.13306 782.05286 L 1232.26392 782.05286 L 1232.26392 767.81061 L 1244.13306 767.81061 L 1244.13306 745.55859 L 1262.67761 745.55859 L 1262.67761 767.81061 L 1277.81104 767.81061 L 1277.81104 782.05286 Z" fill="none" clip-rule="nonzero"></path></clipPath><clipPath id="clippath14" transform="matrix(0.23999999 0 0 -0.23999999 0 383.03998)"><path d="M 0 0 L 2812.5 0 L 2812.5 1562.5 L 0 1562.5 Z" fill="none" clip-rule="nonzero"></path></clipPath><clipPath id="clippath15" transform="matrix(0.23999999 0 0 -0.23999999 0 383.03998)" clip-path="url(#clippath14)"><path d="M 0 0 L 2812.5 0 L 2812.5 1562.5 L 0 1562.5 Z" fill="none" clip-rule="nonzero"></path></clipPath><clipPath id="clippath16" transform="matrix(0.23999999 0 0 -0.23999999 0 383.03998)" clip-path="url(#clippath15)"><path d="M 1284.9519 767.50537 L 1406.835445 767.50537 L 1406.835445 844.280028 L 1284.9519 844.280028 Z" fill="none" clip-rule="nonzero"></path></clipPath><clipPath id="clippath17" transform="matrix(0.23999999 0 0 -0.23999999 0 383.03998)" clip-path="url(#clippath16)"><path d="M 1386.77222 767.80402 L 1406.78101 767.80402 L 1381.58362 844.27997 L 1362.01904 844.27997 L 1352.3855 812.8584 C 1348.73059 800.01569 1346.56042 792.40839 1345.86572 790.03625 C 1345.56982 791.12378 1343.44666 798.73138 1339.49426 812.8584 L 1330.0094 844.27997 L 1310.44495 844.27997 L 1285.25061 767.80402 L 1305.25635 767.80402 L 1313.85571 796.40771 C 1316.02588 803.22485 1318.54675 812.06836 1321.41455 822.93811 C 1324.17957 811.97144 1326.59827 803.07617 1328.67297 796.2605 L 1337.12219 767.80402 L 1354.90637 767.80402 L 1363.35559 796.2605 C 1365.4303 803.07617 1367.849 811.97144 1370.61841 822.93811 C 1373.18628 813.15582 1375.70532 804.31238 1378.17773 796.40771 L 1386.77222 767.80402 Z" fill="none" clip-rule="nonzero"></path></clipPath><clipPath id="clippath18" transform="matrix(0.23999999 0 0 -0.23999999 0 383.03998)"><path d="M 1405.21033 765.92859 L 1483.33533 765.92859 L 1483.33533 847.17859 L 1405.21033 847.17859 Z" fill="none" clip-rule="evenodd"></path></clipPath><clipPath id="clippath19" transform="matrix(0.23999999 0 0 -0.23999999 0 383.03998)"><path d="M 0 0 L 2812.5 0 L 2812.5 1562.5 L 0 1562.5 Z" fill="none" clip-rule="nonzero"></path></clipPath><clipPath id="clippath20" transform="matrix(0.23999999 0 0 -0.23999999 0 383.03998)" clip-path="url(#clippath19)"><path d="M 0 0 L 2812.5 0 L 2812.5 1562.5 L 0 1562.5 Z" fill="none" clip-rule="nonzero"></path></clipPath><clipPath id="clippath21" transform="matrix(0.23999999 0 0 -0.23999999 0 383.03998)" clip-path="url(#clippath20)"><path d="M 1495.80603 738.8562 L 1556.593506 738.8562 L 1556.593506 844.347411 L 1495.80603 844.347411 Z" fill="none" clip-rule="nonzero"></path></clipPath><clipPath id="clippath22" transform="matrix(0.23999999 0 0 -0.23999999 0 383.03998)" clip-path="url(#clippath21)"><path d="M 1549.25049 773.34766 C 1553.98755 778.18481 1556.35706 785.04266 1556.35706 793.92456 L 1556.35706 844.25763 L 1547.91602 844.25763 L 1547.91602 794.66534 C 1547.91602 780.6496 1541.15491 773.64471 1527.63574 773.64471 C 1521.41711 773.64471 1515.98914 776.01233 1511.35217 780.74939 C 1506.81201 785.48682 1504.44263 792.396 1504.24719 801.47516 L 1504.24719 844.25763 L 1495.80603 844.25763 L 1495.80603 738.85626 L 1504.24719 738.85626 L 1504.24719 781.19495 C 1506.71191 776.45789 1510.11743 772.75537 1514.45911 770.08917 C 1518.80237 767.42413 1523.73633 766.09442 1529.2644 766.09442 C 1537.84924 766.09442 1544.51343 768.51044 1549.25049 773.34766 Z" fill="none" clip-rule="nonzero"></path></clipPath><clipPath id="clippath23" transform="matrix(0.23999999 0 0 -0.23999999 0 383.03998)"><path d="M 1566.7843 765.92859 L 1635.5343 765.92859 L 1635.5343 847.17859 L 1566.7843 847.17859 Z" fill="none" clip-rule="evenodd"></path></clipPath><clipPath id="clippath24" transform="matrix(0.23999999 0 0 -0.23999999 0 383.03998)"><path d="M 1644.44507 765.92859 L 1716.32007 765.92859 L 1716.32007 847.17859 L 1644.44507 847.17859 Z" fill="none" clip-rule="evenodd"></path></clipPath><clipPath id="clippath25" transform="matrix(0.23999999 0 0 -0.23999999 0 383.03998)"><path d="M 0 0 L 2812.5 0 L 2812.5 1562.5 L 0 1562.5 Z" fill="none" clip-rule="nonzero"></path></clipPath><clipPath id="clippath26" transform="matrix(0.23999999 0 0 -0.23999999 0 383.03998)" clip-path="url(#clippath25)"><path d="M 0 0 L 2812.5 0 L 2812.5 1562.5 L 0 1562.5 Z" fill="none" clip-rule="nonzero"></path></clipPath><clipPath id="clippath27" transform="matrix(0.23999999 0 0 -0.23999999 0 383.03998)" clip-path="url(#clippath26)"><path d="M 1724.8076 766.72449 L 1763.859358 766.72449 L 1763.859358 844.373965 L 1724.8076 844.373965 Z" fill="none" clip-rule="nonzero"></path></clipPath><clipPath id="clippath28" transform="matrix(0.23999999 0 0 -0.23999999 0 383.03998)" clip-path="url(#clippath27)"><path d="M 1763.7083 766.8736 L 1763.7083 774.88727 L 1760.1442 774.88727 C 1751.7306 774.88727 1745.173 777.26312 1740.4755 782.01404 C 1735.772 786.76459 1733.4225 793.24841 1733.4225 801.46301 L 1733.4225 844.36865 L 1724.9589 844.36865 L 1724.9589 767.76208 L 1732.9774 767.76208 L 1732.9774 783.79437 C 1738.1215 772.41553 1746.9315 766.72461 1759.4043 766.72461 C 1761.5781 766.72461 1763.0168 766.77313 1763.7083 766.8736 Z" fill="none" clip-rule="nonzero"></path></clipPath><clipPath id="clippath29" transform="matrix(0.23999999 0 0 -0.23999999 0 383.03998)"><path d="M 0 0 L 2812.5 0 L 2812.5 1562.5 L 0 1562.5 Z" fill="none" clip-rule="nonzero"></path></clipPath><clipPath id="clippath30" transform="matrix(0.23999999 0 0 -0.23999999 0 383.03998)" clip-path="url(#clippath29)"><path d="M 0 0 L 2812.5 0 L 2812.5 1562.5 L 0 1562.5 Z" fill="none" clip-rule="nonzero"></path></clipPath><clipPath id="clippath31" transform="matrix(0.23999999 0 0 -0.23999999 0 383.03998)" clip-path="url(#clippath30)"><path d="M 1768.4658 746.15411 L 1807.783671 746.15411 L 1807.783671 844.831295 L 1768.4658 844.831295 Z" fill="none" clip-rule="nonzero"></path></clipPath><clipPath id="clippath32" transform="matrix(0.23999999 0 0 -0.23999999 0 383.03998)" clip-path="url(#clippath31)"><path d="M 1807.7836 775.23016 L 1789.9805 775.23016 L 1789.9805 828.33807 C 1789.9805 834.37067 1793.5918 837.38696 1800.8113 837.38696 C 1804.5669 837.38696 1806.8925 837.33844 1807.7836 837.2381 L 1807.7836 844.35919 C 1804.9161 844.6554 1802.246 844.80383 1799.7717 844.80383 C 1787.708 844.80383 1781.6754 839.56396 1781.6754 829.07739 L 1781.6754 775.23016 L 1768.6187 775.23016 L 1768.6187 767.81323 L 1781.6754 767.81323 L 1781.6754 746.15417 L 1789.9805 746.15417 L 1789.9805 767.81323 L 1807.7836 767.81323 L 1807.7836 775.23016 Z" fill="none" clip-rule="nonzero"></path></clipPath><clipPath id="clippath33" transform="matrix(0.23999999 0 0 -0.23999999 0 383.03998)"><path d="M 0 0 L 2812.5 0 L 2812.5 1562.5 L 0 1562.5 Z" fill="none" clip-rule="nonzero"></path></clipPath><clipPath id="clippath34" transform="matrix(0.23999999 0 0 -0.23999999 0 383.03998)" clip-path="url(#clippath33)"><path d="M 0 0 L 2812.5 0 L 2812.5 1562.5 L 0 1562.5 Z" fill="none" clip-rule="nonzero"></path></clipPath><clipPath id="clippath35" transform="matrix(0.23999999 0 0 -0.23999999 0 383.03998)" clip-path="url(#clippath34)"><path d="M 1813.8363 765.92859 L 1875.592037 765.92859 L 1875.592037 846.186952 L 1813.8363 846.186952 Z" fill="none" clip-rule="nonzero"></path></clipPath><clipPath id="clippath36" transform="matrix(0.23999999 0 0 -0.23999999 0 383.03998)" clip-path="url(#clippath35)"><path d="M 1822.733 839.45166 C 1817.2947 835.10583 1814.3295 828.78064 1813.8363 820.47882 L 1822.4357 820.47882 C 1823.423 832.63336 1831.1318 838.7099 1845.5591 838.7099 C 1859.7902 838.7099 1866.9044 833.86981 1866.9044 824.1828 C 1866.9044 820.2298 1865.4724 817.1673 1862.6071 814.99194 C 1859.7418 812.82147 1854.8983 811.09229 1848.08 809.80743 L 1840.2224 808.47107 C 1832.0193 806.99054 1825.9691 804.49292 1822.0646 800.98462 C 1818.1604 797.47742 1816.2089 792.75903 1816.2089 786.82819 C 1816.2089 780.30701 1818.6313 775.19305 1823.4714 771.48871 C 1828.3149 767.78131 1835.0333 765.92859 1843.6323 765.92859 C 1863.1002 765.92859 1873.1812 773.83459 1873.8715 789.64655 L 1865.2751 789.64655 C 1864.8778 784.01135 1862.9515 779.86267 1859.4932 777.19305 C 1856.0328 774.5249 1850.748 773.19312 1843.6323 773.19312 C 1837.6061 773.19312 1832.9362 774.37616 1829.625 776.74835 C 1826.3149 779.11938 1824.6594 782.43054 1824.6594 786.68097 C 1824.6594 790.63245 1826.0664 793.69983 1828.8832 795.8703 C 1831.7001 798.04572 1836.3179 799.72644 1842.7422 800.91101 L 1850.451 802.24731 C 1859.2471 803.82776 1865.5945 806.32239 1869.499 809.7323 C 1873.4036 813.14069 1875.3521 817.80878 1875.3521 823.73999 C 1875.3521 830.95264 1872.7102 836.46429 1867.424 840.26855 C 1862.1346 844.07288 1854.8499 845.9729 1845.5591 845.9729 C 1835.7751 845.9729 1828.1663 843.79755 1822.733 839.45166 Z" fill="none" clip-rule="nonzero"></path></clipPath></defs><g transform="matrix(1 0 0 -1 0 383.03998)"><g transform="matrix(0.23999999 0 0 -0.23999999 0 383.03998)"><path d="M 0 0 L 2812.5 0 L 2812.5 1562.5 L 0 1562.5 Z" fill="none"></path></g><g clip-path="url(#clippath0)"><g transform="matrix(0.7499999687 0 0 -0.7499999687 0 383.03998)"><path d="M 0 0 L 900 0 L 900 500 L 0 500 Z" fill="none" fill-opacity="1"></path></g></g><g transform="matrix(0.23999999 0 0 -0.23999999 0 383.03998)"><path d="M 0 0 L 2812.5 0 L 2812.5 1562.5 L 0 1562.5 Z" fill="none"></path></g><g clip-path="url(#clippath1)"><g transform="matrix(0.7499999687 0 0 -0.7499999687 0 383.03998)"><path d="M 0 0 L 900 0 L 900 500 L 0 500 Z" fill="none" fill-opacity="1"></path></g></g><g transform="matrix(0.23999999 0 0 -0.23999999 0 383.03998)"><path d="M 0 0 L 2812.5 0 L 2812.5 1562.5 L 0 1562.5 Z" fill="none"></path></g><g clip-path="url(#clippath2)"><g transform="matrix(0.23999999 0 0 -0.23999999 0 383.03998)"><path d="M 0 0 L 2812.5 0 L 2812.5 1562.5 L 0 1562.5 Z" fill="none"></path></g></g><g clip-path="url(#clippath3)"><g transform="matrix(0.23999999 0 0 -0.23999999 0 383.03998)"><path d="M 1061.87415 741.93951 L 1147.596074 741.93951 L 1147.596074 868.354366 L 1061.87415 868.354366 Z" fill="none"></path></g></g><g clip-path="url(#clippath4)"><g transform="matrix(0.23999999 0 0 -0.23999999 0 383.03998)"><path d="M 1103.75012 742.27301 C 1128.62 742.29517 1147.28296 762.19244 1147.2627 784.41656 C 1147.25 798.75519 1141.22681 814.61145 1125.39685 824.28955 C 1107.85425 835.01453 1092.75977 844.06366 1084.74915 850.52051 C 1073.03406 859.9624 1070.11621 867.06506 1069.68445 868.26996 C 1069.66565 868.32141 1069.60181 868.31354 1069.59387 868.25873 C 1069.15125 865.45386 1063.99133 832.48151 1062.81946 811.62488 C 1061.99976 797.05157 1060.19409 779.08771 1065.7467 766.49023 C 1070.97827 754.61707 1085.70068 742.25763 1103.75012 742.27301 Z" fill="none"></path></g></g><g clip-path="url(#clippath5)"><g transform="matrix(0.0800516127 0 0 -0.0800516127 254.8497843037 204.8944503131)"><path d="M 0 0 L 256 0 L 256 378 L 0 378 Z" fill="#15aab5" fill-opacity="1"></path></g></g><g transform="matrix(0.23999999 0 0 -0.23999999 0 383.03998)"><path d="M 0 0 L 2812.5 0 L 2812.5 1562.5 L 0 1562.5 Z" fill="none"></path></g><g clip-path="url(#clippath6)"><g transform="matrix(0.23999999 0 0 -0.23999999 0 383.03998)"><path d="M 0 0 L 2812.5 0 L 2812.5 1562.5 L 0 1562.5 Z" fill="none"></path></g></g><g clip-path="url(#clippath7)"><g transform="matrix(0.23999999 0 0 -0.23999999 0 383.03998)"><path d="M 937.55511 694.42401 L 1055.571284 694.42401 L 1055.571284 868.26367 L 937.55511 868.26367 Z" fill="none"></path></g></g><g clip-path="url(#clippath8)"><g transform="matrix(0.23999999 0 0 -0.23999999 0 383.03998)"><path d="M 997.57318 694.42407 C 963.2702 694.45526 937.52716 721.8996 937.5553 752.55487 C 937.5741 772.33344 945.8808 794.20209 967.7168 807.5528 C 991.91345 822.34668 1012.73291 834.82831 1023.78076 843.73242 C 1039.94128 856.75623 1043.96729 866.55493 1044.56128 868.21533 C 1044.58643 868.28699 1044.67529 868.27612 1044.68652 868.20105 C 1045.29785 864.3316 1052.41467 818.85095 1054.03149 790.08386 C 1055.16174 769.98181 1057.65112 745.20355 1049.99438 727.82843 C 1042.77588 711.45062 1022.47046 694.40198 997.57318 694.42407 Z" fill="none"></path></g></g><g clip-path="url(#clippath9)"><g transform="matrix(0.0899170619 0 0 -0.0899170619 225.0132181644 216.378224249)"><path d="M 0 0 L 314 0 L 314 464 L 0 464 Z" fill="#15aab5" fill-opacity="1"></path></g></g><g transform="matrix(0.23999999 0 0 -0.23999999 0 383.03998)"><path d="M 0 0 L 2812.5 0 L 2812.5 1562.5 L 0 1562.5 Z" fill="none"></path></g><g clip-path="url(#clippath10)"><g transform="matrix(0.23999999 0 0 -0.23999999 0 383.03998)"><path d="M 0 0 L 2812.5 0 L 2812.5 1562.5 L 0 1562.5 Z" fill="none"></path></g></g><g clip-path="url(#clippath11)"><g transform="matrix(0.23999999 0 0 -0.23999999 0 383.03998)"><path d="M 1232.26392 745.38074 L 1277.989018 745.38074 L 1277.989018 845.015078 L 1232.26392 845.015078 Z" fill="none"></path></g></g><g clip-path="url(#clippath12)"><g transform="matrix(0.23999999 0 0 -0.23999999 0 383.03998)"><path d="M 1277.81104 782.05286 L 1262.67761 782.05286 L 1262.67761 823.44586 C 1262.67761 825.91742 1263.34485 827.64807 1264.68262 828.63971 C 1266.01709 829.62793 1268.26758 830.12152 1271.43311 830.12152 L 1277.81104 830.12152 L 1277.81104 844.36487 C 1273.75427 844.76111 1270.49341 844.95844 1268.0188 844.95844 C 1259.71277 844.95844 1253.65442 843.39844 1249.8468 840.28485 C 1246.03784 837.16974 1244.13306 832.19836 1244.13306 825.37384 L 1244.13306 782.05286 L 1232.26392 782.05286 L 1232.26392 767.81061 L 1244.13306 767.81061 L 1244.13306 745.55859 L 1262.67761 745.55859 L 1262.67761 767.81061 L 1277.81104 767.81061 L 1277.81104 782.05286 Z" fill="none"></path></g></g><g clip-path="url(#clippath13)"><g transform="matrix(0.0427004286 0 0 -0.0427004286 295.7433275222 204.105910306)"><path d="M 0 0 L 256 0 L 256 559 L 0 559 Z" fill="#ffffff" fill-opacity="1"></path></g></g><g transform="matrix(0.23999999 0 0 -0.23999999 0 383.03998)"><path d="M 0 0 L 2812.5 0 L 2812.5 1562.5 L 0 1562.5 Z" fill="none"></path></g><g clip-path="url(#clippath14)"><g transform="matrix(0.23999999 0 0 -0.23999999 0 383.03998)"><path d="M 0 0 L 2812.5 0 L 2812.5 1562.5 L 0 1562.5 Z" fill="none"></path></g></g><g clip-path="url(#clippath15)"><g transform="matrix(0.23999999 0 0 -0.23999999 0 383.03998)"><path d="M 1284.9519 767.50537 L 1406.835445 767.50537 L 1406.835445 844.280028 L 1284.9519 844.280028 Z" fill="none"></path></g></g><g clip-path="url(#clippath16)"><g transform="matrix(0.23999999 0 0 -0.23999999 0 383.03998)"><path d="M 1386.77222 767.80402 L 1406.78101 767.80402 L 1381.58362 844.27997 L 1362.01904 844.27997 L 1352.3855 812.8584 C 1348.73059 800.01569 1346.56042 792.40839 1345.86572 790.03625 C 1345.56982 791.12378 1343.44666 798.73138 1339.49426 812.8584 L 1330.0094 844.27997 L 1310.44495 844.27997 L 1285.25061 767.80402 L 1305.25635 767.80402 L 1313.85571 796.40771 C 1316.02588 803.22485 1318.54675 812.06836 1321.41455 822.93811 C 1324.17957 811.97144 1326.59827 803.07617 1328.67297 796.2605 L 1337.12219 767.80402 L 1354.90637 767.80402 L 1363.35559 796.2605 C 1365.4303 803.07617 1367.849 811.97144 1370.61841 822.93811 C 1373.18628 813.15582 1375.70532 804.31238 1378.17773 796.40771 L 1386.77222 767.80402 Z" fill="none"></path></g></g><g clip-path="url(#clippath17)"><g transform="matrix(0.0716962242 0 0 -0.0716962242 308.4601336315 198.767009162)"><path d="M 0 0 L 407 0 L 407 256 L 0 256 Z" fill="#ffffff" fill-opacity="1"></path></g></g><g transform="matrix(0.23999999 0 0 -0.23999999 0 383.03998)"><path d="M 1405.21033 765.92859 L 1483.33533 765.92859 L 1483.33533 847.17859 L 1405.21033 847.17859 Z" fill="none"></path></g><g clip-path="url(#clippath18)"><g transform="matrix(0.375585606 0 0 -0.379672921 350.112055012 193.9123270803)"><path d="M 0 23.205 C 2.2409999 20.459 3.3610001 16.5900002 3.3610001 11.6020002 C 3.3610001 6.6149998 2.2409999 2.7460001 0 0 C -2.244 -2.747 -5.3530002 -4.1199999 -9.3299999 -4.1199999 C -13.3100004 -4.1199999 -16.4200001 -2.763 -18.660999 -0.048000004 C -20.902 2.668 -22.024 6.5510001 -22.024 11.6020002 C -22.024 16.6539993 -20.902 20.539 -18.660999 23.252001 C -16.4200001 25.968 -13.3100004 27.327 -9.3299999 27.327 C -5.3530002 27.327 -2.244 25.954 0 23.205 M -9.3299999 37.176998 C -16.782 37.176998 -22.781 34.841 -27.327 30.167999 C -31.938 25.558001 -34.243 19.370001 -34.243 11.6020002 C -34.243 3.835 -31.938 -2.3529999 -27.327 -6.9640002 C -22.781 -11.6359997 -16.782 -13.9720001 -9.3299999 -13.9720001 C -1.878 -13.9720001 4.1199999 -11.6669998 8.6660004 -7.0580001 C 13.2130003 -2.448 15.4849997 3.773 15.4849997 11.6020002 C 15.4849997 19.306 13.2130003 25.496 8.6660004 30.167999 C 4.1199999 34.841 -1.878 37.176998 -9.3299999 37.176998" fill="#ffffff" fill-opacity="1"></path></g></g><g transform="matrix(0.23999999 0 0 -0.23999999 0 383.03998)"><path d="M 0 0 L 2812.5 0 L 2812.5 1562.5 L 0 1562.5 Z" fill="none"></path></g><g clip-path="url(#clippath19)"><g transform="matrix(0.23999999 0 0 -0.23999999 0 383.03998)"><path d="M 0 0 L 2812.5 0 L 2812.5 1562.5 L 0 1562.5 Z" fill="none"></path></g></g><g clip-path="url(#clippath20)"><g transform="matrix(0.23999999 0 0 -0.23999999 0 383.03998)"><path d="M 1495.80603 738.8562 L 1556.593506 738.8562 L 1556.593506 844.347411 L 1495.80603 844.347411 Z" fill="none"></path></g></g><g clip-path="url(#clippath21)"><g transform="matrix(0.23999999 0 0 -0.23999999 0 383.03998)"><path d="M 1549.25049 773.34766 C 1553.98755 778.18481 1556.35706 785.04266 1556.35706 793.92456 L 1556.35706 844.25763 L 1547.91602 844.25763 L 1547.91602 794.66534 C 1547.91602 780.6496 1541.15491 773.64471 1527.63574 773.64471 C 1521.41711 773.64471 1515.98914 776.01233 1511.35217 780.74939 C 1506.81201 785.48682 1504.44263 792.396 1504.24719 801.47516 L 1504.24719 844.25763 L 1495.80603 844.25763 L 1495.80603 738.85626 L 1504.24719 738.85626 L 1504.24719 781.19495 C 1506.71191 776.45789 1510.11743 772.75537 1514.45911 770.08917 C 1518.80237 767.42413 1523.73633 766.09442 1529.2644 766.09442 C 1537.84924 766.09442 1544.51343 768.51044 1549.25049 773.34766 Z" fill="none"></path></g></g><g clip-path="url(#clippath22)"><g transform="matrix(0.0567665688 0 0 -0.0567665688 358.9934323067 205.7144991078)"><path d="M 0 0 L 256 0 L 256 446 L 0 446 Z" fill="#ffffff" fill-opacity="1"></path></g></g><g transform="matrix(0.23999999 0 0 -0.23999999 0 383.03998)"><path d="M 1566.7843 765.92859 L 1635.5343 765.92859 L 1635.5343 847.17859 L 1566.7843 847.17859 Z" fill="none"></path></g><g clip-path="url(#clippath23)"><g transform="matrix(0.3756818243 0 0 -0.379672921 380.0138817661 183.4299483171)"><path d="M 0 -32.013 C -2.905 -28.92 -4.5799999 -24.594 -5.0209999 -19.037001 L 27.469999 -19.037001 C 27.152 -24.403999 25.589001 -28.683001 22.781 -31.871 C 19.969999 -35.061001 16.1660004 -36.654999 11.3649998 -36.654999 C 6.6929998 -36.654999 2.9030001 -35.108002 0 -32.013 M 33.247002 -14.2060003 L -5.1160002 -14.2060003 C -4.862 -8.1440001 -3.2679999 -3.4860001 -0.33200002 -0.234 C 2.6040001 3.0179999 6.6290002 4.645 11.7449999 4.645 C 15.6610003 4.645 18.912001 3.5869999 21.502001 1.47099996 C 24.09 -0.64400005 25.795 -3.533 26.615999 -7.197 L 32.203999 -7.197 C 31.068001 -2.0179999 28.701 2.0710001 25.1 5.0690002 C 21.502001 8.0690002 16.986 9.5679998 11.5550003 9.5679998 C 4.7360001 9.5679998 -0.66400003 7.2319999 -4.6409998 2.5599999 C -8.6210003 -2.112 -10.6090002 -8.3030005 -10.6090002 -16.0060005 C -10.6090002 -23.645 -8.6210003 -29.836 -4.6409998 -34.571999 C -0.72599995 -39.243999 4.6079998 -41.581001 11.3649998 -41.581001 C 18.247999 -41.581001 23.615 -39.18 27.469999 -34.382 C 31.320999 -29.582001 33.247002 -23.489 33.247002 -16.1009998 L 33.247002 -14.2060003 Z" fill="#ffffff" fill-opacity="1"></path></g></g><g transform="matrix(0.23999999 0 0 -0.23999999 0 383.03998)"><path d="M 1644.44507 765.92859 L 1716.32007 765.92859 L 1716.32007 847.17859 L 1644.44507 847.17859 Z" fill="none"></path></g><g clip-path="url(#clippath24)"><g transform="matrix(0.3802910458 0 0 -0.3796570138 405.7256950948 195.9083661972)"><path d="M 0 33.721001 C 3.283 31.004999 4.9260001 26.933001 4.9260001 21.502001 L 4.9260001 14.1140003 C 3.3470001 15.6929998 0.63099998 16.7040005 -3.221 17.145 L -10.7989998 18.091 C -15.2810001 18.66 -18.518999 19.749001 -20.507999 21.358999 C -22.496 22.969999 -23.492001 25.292 -23.492001 28.323 C -23.492001 31.290001 -22.542999 33.625999 -20.648001 35.331001 C -18.756001 37.036999 -15.9759998 37.888 -12.3140001 37.888 C -7.4520001 37.888 -3.346 36.500999 0 33.721001 M 16.1970005 36.942001 L 16.1970005 41.299 C 15.125 41.487999 13.9549999 41.583 12.6940002 41.583 C 10.04 41.583 8.1140003 40.936001 6.914 39.640999 C 5.7139997 38.346001 5.1160002 36.341999 5.1160002 33.625999 L 5.1160002 32.962002 C 1.8310001 39.278 -4.072 42.435001 -12.599 42.435001 C -17.84 42.435001 -21.896 41.187 -24.77 38.695 C -27.643 36.199001 -29.08 32.775002 -29.08 28.417999 C -29.08 19.955 -23.268999 15.0290003 -11.6499996 13.6389999 L -4.072 12.7880001 C -0.72599995 12.3439999 1.61000001 11.5240002 2.9360001 10.3240004 C 4.2620001 9.1260004 4.9260001 7.2930002 4.9260001 4.8309999 C 4.9260001 -1.10599995 0.72599995 -4.073 -7.6729999 -4.073 C -12.5349998 -4.073 -16.0540009 -3.221 -18.233999 -1.51600003 C -20.414 0.18900001 -21.597 3.0639999 -21.787001 7.105 L -26.995001 7.105 C -26.68 -3.4419999 -20.238001 -8.7139997 -7.6729999 -8.7139997 C -1.7360001 -8.7139997 2.7160001 -7.5310001 5.6830001 -5.1609998 C 8.6520004 -2.7939999 10.1339998 0.53799999 10.1339998 4.8309999 L 10.1339998 33.436001 C 10.1339998 35.772999 11.3039999 36.942001 13.6400003 36.942001 L 16.1970005 36.942001 Z" fill="#ffffff" fill-opacity="1"></path></g></g><g transform="matrix(0.23999999 0 0 -0.23999999 0 383.03998)"><path d="M 0 0 L 2812.5 0 L 2812.5 1562.5 L 0 1562.5 Z" fill="none"></path></g><g clip-path="url(#clippath25)"><g transform="matrix(0.23999999 0 0 -0.23999999 0 383.03998)"><path d="M 0 0 L 2812.5 0 L 2812.5 1562.5 L 0 1562.5 Z" fill="none"></path></g></g><g clip-path="url(#clippath26)"><g transform="matrix(0.23999999 0 0 -0.23999999 0 383.03998)"><path d="M 1724.8076 766.72449 L 1763.859358 766.72449 L 1763.859358 844.373965 L 1724.8076 844.373965 Z" fill="none"></path></g></g><g clip-path="url(#clippath27)"><g transform="matrix(0.23999999 0 0 -0.23999999 0 383.03998)"><path d="M 1763.7083 766.8736 L 1763.7083 774.88727 L 1760.1442 774.88727 C 1751.7306 774.88727 1745.173 777.26312 1740.4755 782.01404 C 1735.772 786.76459 1733.4225 793.24841 1733.4225 801.46301 L 1733.4225 844.36865 L 1724.9589 844.36865 L 1724.9589 767.76208 L 1732.9774 767.76208 L 1732.9774 783.79437 C 1738.1215 772.41553 1746.9315 766.72461 1759.4043 766.72461 C 1761.5781 766.72461 1763.0168 766.77313 1763.7083 766.8736 Z" fill="none"></path></g></g><g clip-path="url(#clippath28)"><g transform="matrix(0.0363272258 0 0 -0.0363272258 413.9901390016 199.0261107152)"><path d="M 0 0 L 256 0 L 256 513 L 0 513 Z" fill="#ffffff" fill-opacity="1"></path></g></g><g transform="matrix(0.23999999 0 0 -0.23999999 0 383.03998)"><path d="M 0 0 L 2812.5 0 L 2812.5 1562.5 L 0 1562.5 Z" fill="none"></path></g><g clip-path="url(#clippath29)"><g transform="matrix(0.23999999 0 0 -0.23999999 0 383.03998)"><path d="M 0 0 L 2812.5 0 L 2812.5 1562.5 L 0 1562.5 Z" fill="none"></path></g></g><g clip-path="url(#clippath30)"><g transform="matrix(0.23999999 0 0 -0.23999999 0 383.03998)"><path d="M 1768.4658 746.15411 L 1807.783671 746.15411 L 1807.783671 844.831295 L 1768.4658 844.831295 Z" fill="none"></path></g></g><g clip-path="url(#clippath31)"><g transform="matrix(0.23999999 0 0 -0.23999999 0 383.03998)"><path d="M 1807.7836 775.23016 L 1789.9805 775.23016 L 1789.9805 828.33807 C 1789.9805 834.37067 1793.5918 837.38696 1800.8113 837.38696 C 1804.5669 837.38696 1806.8925 837.33844 1807.7836 837.2381 L 1807.7836 844.35919 C 1804.9161 844.6554 1802.246 844.80383 1799.7717 844.80383 C 1787.708 844.80383 1781.6754 839.56396 1781.6754 829.07739 L 1781.6754 775.23016 L 1768.6187 775.23016 L 1768.6187 767.81323 L 1781.6754 767.81323 L 1781.6754 746.15417 L 1789.9805 746.15417 L 1789.9805 767.81323 L 1807.7836 767.81323 L 1807.7836 775.23016 Z" fill="none"></path></g></g><g clip-path="url(#clippath32)"><g transform="matrix(0.0367170832 0 0 -0.0367170832 424.4684881722 203.9630001567)"><path d="M 0 0 L 256 0 L 256 645 L 0 645 Z" fill="#ffffff" fill-opacity="1"></path></g></g><g transform="matrix(0.23999999 0 0 -0.23999999 0 383.03998)"><path d="M 0 0 L 2812.5 0 L 2812.5 1562.5 L 0 1562.5 Z" fill="none"></path></g><g clip-path="url(#clippath33)"><g transform="matrix(0.23999999 0 0 -0.23999999 0 383.03998)"><path d="M 0 0 L 2812.5 0 L 2812.5 1562.5 L 0 1562.5 Z" fill="none"></path></g></g><g clip-path="url(#clippath34)"><g transform="matrix(0.23999999 0 0 -0.23999999 0 383.03998)"><path d="M 1813.8363 765.92859 L 1875.592037 765.92859 L 1875.592037 846.186952 L 1813.8363 846.186952 Z" fill="none"></path></g></g><g clip-path="url(#clippath35)"><g transform="matrix(0.23999999 0 0 -0.23999999 0 383.03998)"><path d="M 1822.733 839.45166 C 1817.2947 835.10583 1814.3295 828.78064 1813.8363 820.47882 L 1822.4357 820.47882 C 1823.423 832.63336 1831.1318 838.7099 1845.5591 838.7099 C 1859.7902 838.7099 1866.9044 833.86981 1866.9044 824.1828 C 1866.9044 820.2298 1865.4724 817.1673 1862.6071 814.99194 C 1859.7418 812.82147 1854.8983 811.09229 1848.08 809.80743 L 1840.2224 808.47107 C 1832.0193 806.99054 1825.9691 804.49292 1822.0646 800.98462 C 1818.1604 797.47742 1816.2089 792.75903 1816.2089 786.82819 C 1816.2089 780.30701 1818.6313 775.19305 1823.4714 771.48871 C 1828.3149 767.78131 1835.0333 765.92859 1843.6323 765.92859 C 1863.1002 765.92859 1873.1812 773.83459 1873.8715 789.64655 L 1865.2751 789.64655 C 1864.8778 784.01135 1862.9515 779.86267 1859.4932 777.19305 C 1856.0328 774.5249 1850.748 773.19312 1843.6323 773.19312 C 1837.6061 773.19312 1832.9362 774.37616 1829.625 776.74835 C 1826.3149 779.11938 1824.6594 782.43054 1824.6594 786.68097 C 1824.6594 790.63245 1826.0664 793.69983 1828.8832 795.8703 C 1831.7001 798.04572 1836.3179 799.72644 1842.7422 800.91101 L 1850.451 802.24731 C 1859.2471 803.82776 1865.5945 806.32239 1869.499 809.7323 C 1873.4036 813.14069 1875.3521 817.80878 1875.3521 823.73999 C 1875.3521 830.95264 1872.7102 836.46429 1867.424 840.26855 C 1862.1346 844.07288 1854.8499 845.9729 1845.5591 845.9729 C 1835.7751 845.9729 1828.1663 843.79755 1822.733 839.45166 Z" fill="none"></path></g></g><g clip-path="url(#clippath36)"><g transform="matrix(0.057670668 0 0 -0.057670668 435.320694752 199.2171263305)"><path d="M 0 0 L 256 0 L 256 333 L 0 333 Z" fill="#ffffff" fill-opacity="1"></path></g></g><g transform=""><path d="M 225.01323 174.60779 L 253.280297 174.60779 L 253.280297 216.378233 L 225.01323 216.378233 Z" fill="#000000" fill-opacity="0"></path><path d="M 254.84978 174.6469 L 275.374911 174.6469 L 275.374911 204.894462 L 254.84978 204.894462 Z" fill="#000000" fill-opacity="0"></path><path d="M 295.74335 180.24995 L 306.726096 180.24995 L 306.726096 204.105915 L 295.74335 204.105915 Z" fill="#000000" fill-opacity="0"></path><path d="M 337.25046 179.95232 L 355.975142 179.95232 L 355.975142 199.217136 L 337.25046 199.217136 Z" fill="#000000" fill-opacity="0"></path><path d="M 308.46014 180.40242 L 337.627432 180.40242 L 337.627432 198.767012 L 308.46014 198.767012 Z" fill="#000000" fill-opacity="0"></path><path d="M 358.99344 180.41818 L 373.577086 180.41818 L 373.577086 205.714504 L 358.99344 205.714504 Z" fill="#000000" fill-opacity="0"></path><path d="M 376.02823 179.95232 L 392.50235 179.95232 L 392.50235 199.217136 L 376.02823 199.217136 Z" fill="#000000" fill-opacity="0"></path><path d="M 394.6668 179.95232 L 411.681054 179.95232 L 411.681054 199.217136 L 394.6668 199.217136 Z" fill="#000000" fill-opacity="0"></path><path d="M 413.99014 180.39145 L 423.352481 180.39145 L 423.352481 199.026109 L 413.99014 199.026109 Z" fill="#000000" fill-opacity="0"></path><path d="M 424.4685 180.28708 L 433.920863 180.28708 L 433.920863 203.962999 L 424.4685 203.962999 Z" fill="#000000" fill-opacity="0"></path><path d="M 435.3207 179.95232 L 450.084391 179.95232 L 450.084391 199.217136 L 435.3207 199.217136 Z" fill="#000000" fill-opacity="0"></path></g></g></svg>